<mxfile host="65bd71144e">
    <diagram id="DLjmupUZ2m6u4R_Xzwk4" name="Page-1">
        <mxGraphModel dx="504" dy="256" grid="0" gridSize="10" guides="1" tooltips="1" connect="1" arrows="1" fold="1" page="1" pageScale="1" pageWidth="850" pageHeight="1100" background="#ffffff" math="0" shadow="0">
            <root>
                <mxCell id="0"/>
                <mxCell id="1" parent="0"/>
                <mxCell id="22" value="Usu치rios" style="shape=umlFrame;whiteSpace=wrap;html=1;strokeColor=#000000;" parent="1" vertex="1">
                    <mxGeometry x="70" y="48" width="755" height="634" as="geometry"/>
                </mxCell>
                <mxCell id="37" style="edgeStyle=none;html=1;entryX=0;entryY=0.5;entryDx=0;entryDy=0;strokeColor=#000000;fontSize=17;fontColor=#000000;" parent="1" source="23" target="33" edge="1">
                    <mxGeometry relative="1" as="geometry"/>
                </mxCell>
                <mxCell id="38" style="edgeStyle=none;html=1;strokeColor=#000000;fontSize=17;fontColor=#000000;" parent="1" source="23" target="36" edge="1">
                    <mxGeometry relative="1" as="geometry"/>
                </mxCell>
                <mxCell id="39" style="edgeStyle=none;html=1;entryX=0;entryY=0.5;entryDx=0;entryDy=0;strokeColor=#000000;fontSize=17;fontColor=#000000;" parent="1" source="23" target="34" edge="1">
                    <mxGeometry relative="1" as="geometry"/>
                </mxCell>
                <mxCell id="40" style="edgeStyle=none;html=1;strokeColor=#000000;fontSize=17;fontColor=#000000;entryX=0;entryY=0.5;entryDx=0;entryDy=0;" parent="1" source="23" target="35" edge="1">
                    <mxGeometry relative="1" as="geometry"/>
                </mxCell>
                <mxCell id="47" style="edgeStyle=none;html=1;entryX=0;entryY=0.5;entryDx=0;entryDy=0;strokeColor=#000000;fontSize=17;fontColor=#000000;" parent="1" source="23" target="45" edge="1">
                    <mxGeometry relative="1" as="geometry"/>
                </mxCell>
                <mxCell id="23" value="Actor" style="shape=umlActor;verticalLabelPosition=bottom;verticalAlign=top;html=1;strokeColor=#0A0A0A;" parent="1" vertex="1">
                    <mxGeometry x="216" y="205" width="30" height="60" as="geometry"/>
                </mxCell>
                <mxCell id="24" value="&lt;font size=&quot;1&quot; color=&quot;#000000&quot;&gt;&lt;b style=&quot;font-size: 14px;&quot;&gt;Usu치rio&lt;/b&gt;&lt;/font&gt;" style="text;html=1;align=center;verticalAlign=middle;whiteSpace=wrap;rounded=0;" parent="1" vertex="1">
                    <mxGeometry x="201" y="277" width="60" height="30" as="geometry"/>
                </mxCell>
                <mxCell id="31" value="" style="edgeStyle=none;html=1;strokeColor=#000000;fontSize=14;fontColor=#000000;" parent="1" source="25" target="24" edge="1">
                    <mxGeometry relative="1" as="geometry"/>
                </mxCell>
                <mxCell id="25" value="Actor" style="shape=umlActor;verticalLabelPosition=bottom;verticalAlign=top;html=1;strokeColor=#0A0A0A;" parent="1" vertex="1">
                    <mxGeometry x="157" y="376" width="30" height="60" as="geometry"/>
                </mxCell>
                <mxCell id="26" value="&lt;font size=&quot;1&quot; color=&quot;#000000&quot;&gt;&lt;b style=&quot;font-size: 14px;&quot;&gt;Empreendedor&lt;/b&gt;&lt;/font&gt;" style="text;html=1;align=center;verticalAlign=middle;whiteSpace=wrap;rounded=0;" parent="1" vertex="1">
                    <mxGeometry x="104" y="441" width="116" height="30" as="geometry"/>
                </mxCell>
                <mxCell id="29" value="" style="rounded=0;whiteSpace=wrap;html=1;strokeColor=#0A0A0A;fontSize=14;fontColor=#000000;fillColor=none;" parent="1" vertex="1">
                    <mxGeometry x="379" y="86" width="306" height="541" as="geometry"/>
                </mxCell>
                <mxCell id="32" value="&lt;font style=&quot;font-size: 17px;&quot;&gt;Usu치rios&lt;/font&gt;" style="text;html=1;strokeColor=none;fillColor=none;align=center;verticalAlign=middle;whiteSpace=wrap;rounded=0;fontSize=14;fontColor=#000000;" parent="1" vertex="1">
                    <mxGeometry x="502" y="107" width="60" height="30" as="geometry"/>
                </mxCell>
                <mxCell id="33" value="Cadastrar usu치rio" style="ellipse;whiteSpace=wrap;html=1;strokeColor=#0A0A0A;fontSize=17;fontColor=#000000;fillColor=none;" parent="1" vertex="1">
                    <mxGeometry x="458" y="162" width="161" height="70" as="geometry"/>
                </mxCell>
                <mxCell id="34" value="Recuperar senha" style="ellipse;whiteSpace=wrap;html=1;strokeColor=#0A0A0A;fontSize=17;fontColor=#000000;fillColor=none;" parent="1" vertex="1">
                    <mxGeometry x="458" y="332" width="161" height="70" as="geometry"/>
                </mxCell>
                <mxCell id="35" value="Editar perfil" style="ellipse;whiteSpace=wrap;html=1;strokeColor=#0A0A0A;fontSize=17;fontColor=#000000;fillColor=none;" parent="1" vertex="1">
                    <mxGeometry x="461" y="421" width="161" height="70" as="geometry"/>
                </mxCell>
                <mxCell id="36" value="Fazer login" style="ellipse;whiteSpace=wrap;html=1;strokeColor=#0A0A0A;fontSize=17;fontColor=#000000;fillColor=none;" parent="1" vertex="1">
                    <mxGeometry x="458" y="244" width="161" height="70" as="geometry"/>
                </mxCell>
                <mxCell id="59" style="edgeStyle=none;html=1;entryX=0.654;entryY=1.001;entryDx=0;entryDy=0;entryPerimeter=0;strokeColor=#000000;" edge="1" parent="1" source="41" target="24">
                    <mxGeometry relative="1" as="geometry"/>
                </mxCell>
                <mxCell id="41" value="Actor" style="shape=umlActor;verticalLabelPosition=bottom;verticalAlign=top;html=1;strokeColor=#0A0A0A;" parent="1" vertex="1">
                    <mxGeometry x="261" y="376" width="30" height="60" as="geometry"/>
                </mxCell>
                <mxCell id="42" value="&lt;font size=&quot;1&quot; color=&quot;#000000&quot;&gt;&lt;b style=&quot;font-size: 14px;&quot;&gt;Cliente&lt;/b&gt;&lt;/font&gt;" style="text;html=1;align=center;verticalAlign=middle;whiteSpace=wrap;rounded=0;" parent="1" vertex="1">
                    <mxGeometry x="246" y="445" width="60" height="30" as="geometry"/>
                </mxCell>
                <mxCell id="45" value="Excluir perfil" style="ellipse;whiteSpace=wrap;html=1;strokeColor=#0A0A0A;fontSize=17;fontColor=#000000;fillColor=none;" parent="1" vertex="1">
                    <mxGeometry x="461" y="523" width="161" height="70" as="geometry"/>
                </mxCell>
            </root>
        </mxGraphModel>
    </diagram>
</mxfile>